<?xml version="1.0" encoding="UTF-8" standalone="no"?>
<!-- Created with Inkscape (http://www.inkscape.org/) -->

<svg
   width="300mm"
   height="300mm"
   viewBox="0 0 300 300"
   version="1.1"
   id="svg1"
   xml:space="preserve"
   inkscape:export-filename="bitmapa.svg"
   inkscape:export-xdpi="96"
   inkscape:export-ydpi="96"
   xmlns:inkscape="http://www.inkscape.org/namespaces/inkscape"
   xmlns:sodipodi="http://sodipodi.sourceforge.net/DTD/sodipodi-0.dtd"
   xmlns="http://www.w3.org/2000/svg"
   xmlns:svg="http://www.w3.org/2000/svg"><sodipodi:namedview
     id="namedview1"
     pagecolor="#ffffff"
     bordercolor="#000000"
     borderopacity="0.25"
     inkscape:showpageshadow="2"
     inkscape:pageopacity="0.0"
     inkscape:pagecheckerboard="0"
     inkscape:deskcolor="#d1d1d1"
     inkscape:document-units="mm" /><defs
     id="defs1" /><g
     inkscape:label="Vrstva 1"
     inkscape:groupmode="layer"
     id="layer1"><path
       style="fill:#000000;stroke-width:1.10869"
       d="M 2.4488965,150 V 113.03889 H 150.00001 297.5511 V 150 186.96111 H 150.00001 2.4488965 Z m 136.0374235,35.76534 0.95337,0.0408 v -1.89192 c 0,-2.7937 -0.0222,-2.81993 -2.37813,-2.81993 -1.82644,0 -2.02201,0.0568 -2.02201,0.58669 0,0.49977 0.19557,0.58667 1.32003,0.58667 0.72604,0 1.32006,0.13202 1.32006,0.29335 0,0.16134 -0.50162,0.29334 -1.11471,0.29334 -1.36477,0 -1.81871,0.41371 -1.81871,1.65748 0,1.15333 0.6763,1.64783 1.90671,1.39418 0.48401,-0.0997 1.30904,-0.16307 1.83339,-0.14063 z m -1.98006,-1.44431 c 0,-0.16133 0.26401,-0.29335 0.58668,-0.29335 0.32268,0 0.5867,0.13202 0.5867,0.29335 0,0.16133 -0.26402,0.29334 -0.5867,0.29334 -0.32267,0 -0.58668,-0.13201 -0.58668,-0.29334 z m 13.56708,1.448 1.10003,0.0424 v -1.86254 c 0,-2.59912 -0.29164,-2.90757 -2.64468,-2.79707 -1.53027,0.0719 -1.9151,0.18811 -1.99402,0.60239 -0.0816,0.42833 0.1244,0.51334 1.24375,0.51334 0.73786,0 1.34155,0.13202 1.34155,0.29335 0,0.16134 -0.50161,0.29335 -1.1147,0.29335 -1.36476,0 -1.81871,0.4137 -1.81871,1.65747 0,1.15298 0.67586,1.64753 1.90672,1.39519 0.48401,-0.0992 1.37504,-0.1613 1.98006,-0.13795 z m -2.12673,-1.448 c 0,-0.16133 0.26401,-0.29335 0.58668,-0.29335 0.32267,0 0.58668,0.13202 0.58668,0.29335 0,0.16133 -0.26401,0.29334 -0.58668,0.29334 -0.32267,0 -0.58668,-0.13201 -0.58668,-0.29334 z m 15.08802,1.47397 c 0.72925,-0.27727 0.75246,-0.36589 0.75246,-2.87475 0,-1.62229 -0.13141,-2.72009 -0.35201,-2.94069 -0.19685,-0.19683 -1.14079,-0.35201 -2.14141,-0.35201 -1.00063,0 -1.94455,0.15518 -2.14139,0.35201 -0.19361,0.19361 -0.35201,0.95923 -0.35201,1.7014 0,1.67455 0.36259,2.05338 1.96539,2.05338 0.92566,0 1.26138,0.11711 1.26138,0.44002 0,0.33245 -0.35854,0.44001 -1.46672,0.44001 -1.25435,0 -1.46671,0.0822 -1.46671,0.56719 0,0.39358 0.24694,0.60462 0.8067,0.68942 1.52212,0.23059 2.38289,0.20971 3.13432,-0.0759 z m -2.47431,-4.26071 c 0,-0.5867 0.14667,-0.73337 0.73335,-0.73337 0.58668,0 0.73337,0.14667 0.73337,0.73337 0,0.58667 -0.14669,0.73334 -0.73337,0.73334 -0.58668,0 -0.73335,-0.14667 -0.73335,-0.73334 z m 8.88982,3.98788 c 0.45193,-0.45191 0.62078,-4.09061 0.23611,-5.08792 -0.29732,-0.77084 -0.40014,-0.8067 -2.31314,-0.8067 -1.16597,0 -2.14897,0.147 -2.35399,0.35201 -0.19361,0.19361 -0.35201,0.95923 -0.35201,1.7014 0,1.67455 0.36259,2.05338 1.96539,2.05338 0.92566,0 1.26137,0.11711 1.26137,0.44002 0,0.33245 -0.35853,0.44001 -1.4667,0.44001 -1.25436,0 -1.46672,0.0822 -1.46672,0.56719 0,0.39003 0.25199,0.60996 0.80669,0.70405 1.24196,0.21068 3.31329,0.006 3.683,-0.36344 z m -2.97004,-3.91456 c 0.0602,-0.42415 0.32958,-0.69351 0.75375,-0.75376 0.53754,-0.0763 0.66002,0.0462 0.66002,0.66002 0,0.6139 -0.13987,0.75376 -0.75376,0.75376 -0.61388,0 -0.73636,-0.12246 -0.66001,-0.66002 z m 8.9754,4.01682 c 0.58405,-0.40909 0.65196,-0.70849 0.65196,-2.87475 0,-1.48962 -0.13517,-2.55327 -0.35201,-2.77012 -0.46365,-0.46363 -4.1125,-0.46363 -4.57614,0 -0.21685,0.21685 -0.35201,1.2805 -0.35201,2.77012 0,2.16626 0.0678,2.46566 0.65194,2.87475 0.35859,0.25115 1.25324,0.45666 1.98814,0.45666 0.73489,0 1.62955,-0.20551 1.98812,-0.45666 z m -2.80881,-2.84345 c 0.0827,-1.73677 0.12598,-1.83339 0.82069,-1.83339 0.69469,0 0.73796,0.0967 0.82068,1.83339 l 0.0874,1.83339 h -0.90802 -0.90803 z m -46.4074,2.12673 c 0,-0.85876 0.0349,-0.88003 1.44576,-0.88003 0.9232,0 1.61236,-0.16661 1.90672,-0.46096 0.6196,-0.6196 0.58938,-2.54241 -0.0524,-3.33396 -0.46109,-0.56869 -0.75227,-0.62426 -2.86008,-0.54585 l -2.34674,0.0874 -0.0836,3.00676 -0.0836,3.00674 h 1.03697 c 0.95661,0 1.03696,-0.0682 1.03696,-0.88002 z m 0,-2.93342 c 0,-0.77832 0.0996,-0.88003 0.86271,-0.88003 0.99584,0 1.30559,0.3492 1.04318,1.17599 -0.12958,0.40828 -0.4443,0.58407 -1.04564,0.58407 -0.76028,0 -0.86025,-0.10218 -0.86025,-0.88003 z m 6.45352,2.20007 c 0,-1.59708 0.009,-1.61338 0.88003,-1.61338 0.73336,0 0.88003,-0.11735 0.88003,-0.70402 0,-0.66491 -0.0978,-0.70402 -1.76006,-0.70402 h -1.76005 v 2.3174 2.31739 h 0.88002 c 0.87115,0 0.88003,-0.0163 0.88003,-1.61337 z m 9.6803,-0.16707 c 0,-1.67862 0.0379,-1.77509 0.66001,-1.68672 0.5847,0.083 0.67006,0.28626 0.74801,1.78046 0.0861,1.65234 0.10569,1.6867 0.95334,1.6867 0.86318,0 0.86541,-0.004 0.86541,-1.77933 0,-2.46399 -0.29613,-2.91414 -1.91705,-2.91414 -1.20147,0 -1.30972,-0.0606 -1.30972,-0.73336 0,-0.61927 -0.1369,-0.73335 -0.88003,-0.73335 h -0.88003 v 3.0801 3.08008 h 0.88003 0.88003 z m 15.54714,-1.29964 v -3.0801 h -0.86624 c -1.90913,0 -3.24093,1.46599 -1.55085,1.70712 0.61312,0.0875 0.65703,0.23942 0.65703,2.2734 v 2.17966 h 0.88002 0.88004 z m -35.4944,0.14667 v -0.88003 H 63.024051 3.6222645 v 0.88003 0.88002 H 63.024051 122.42585 Z m 174.53857,0 v -0.88003 h -59.40178 -59.4018 v 0.88003 0.88002 h 59.4018 59.40178 z M 36.552156,166.88731 c 1.956066,-0.72437 3.803537,-2.61736 4.623659,-4.73757 0.587169,-1.51796 0.674695,-2.28894 0.696621,-6.13624 0.0205,-3.59722 -0.07612,-4.69452 -0.529508,-6.0135 -0.691721,-2.01233 -1.575503,-3.34051 -2.847054,-4.27863 -1.942022,-1.43277 -3.369328,-1.66568 -11.359036,-1.8535 l -7.433026,-0.17474 -0.70722,-0.82304 c -1.266214,-1.47359 -0.827664,-5.53216 0.675307,-6.24963 0.288309,-0.13763 4.682322,-0.31863 9.764477,-0.40222 l 9.240277,-0.15199 v -3.66678 -3.66678 H 26.942967 15.209281 l -1.938565,0.91853 c -3.4356105,1.62787 -4.6766975,4.07756 -4.8847945,9.64178 -0.283502,7.5804 1.457304,10.90475 6.5300165,12.47009 0.730315,0.22537 4.16399,0.4316 9.093607,0.5462 l 7.920239,0.1841 0.09252,2.20008 c 0.122443,2.91179 -0.289452,4.25936 -1.49197,4.88122 -0.853138,0.44117 -1.619364,0.45317 -8.568995,0.13412 -4.197644,-0.19271 -8.834122,-0.42861 -10.303285,-0.52426 l -2.6712065,-0.17389 -0.203049,0.80902 c -0.309839,1.23449 -0.140724,5.95847 0.230454,6.43737 0.25375,0.32739 2.0248755,0.52174 7.8084145,0.85681 9.851248,0.57076 17.82372,0.4792 19.729494,-0.22655 z m 211.377284,0.0325 c 1.95858,-0.74679 3.44695,-2.09642 4.3581,-3.95191 l 0.82222,-1.67435 0.0851,-13.03014 c 0.0986,-15.1007 0.0745,-15.28565 -2.2907,-17.65521 -2.31444,-2.31871 -3.08401,-2.46232 -13.19476,-2.46232 -9.60311,0 -10.52511,0.14067 -12.70644,1.93871 -2.4703,2.03623 -3.25318,5.18032 -3.07814,12.36189 0.10261,4.20588 0.19669,4.94805 0.80054,6.30881 0.77602,1.74875 2.16451,3.09807 4.11548,3.99938 1.18917,0.54938 1.84744,0.61413 6.02841,0.59306 3.01226,-0.0152 5.67329,-0.20007 7.42882,-0.51615 1.50444,-0.27088 2.85747,-0.41702 3.00676,-0.32474 0.36802,0.22744 0.3416,4.12208 -0.0372,5.48613 -0.50142,1.80547 -1.34725,2.06037 -6.1004,1.83843 -2.20254,-0.10293 -5.52267,-0.30886 -7.37806,-0.45781 -1.85539,-0.14896 -3.73644,-0.27292 -4.18013,-0.27547 l -0.80669,-0.004 v 3.67599 c 0,2.67763 0.0995,3.7104 0.36669,3.80271 0.20166,0.0697 2.87475,0.31948 5.94017,0.55505 7.24866,0.55707 15.06828,0.46064 16.82034,-0.20741 z m -15.13361,-21.74897 c -0.62337,-0.4575 -0.66003,-0.6878 -0.66003,-4.14788 0,-3.49848 0.0323,-3.69591 0.72003,-4.38349 0.69501,-0.69502 0.86083,-0.72002 4.77487,-0.72002 4.60283,0 5.1393,0.18919 5.63906,1.9887 0.16672,0.60026 0.30385,2.37378 0.30475,3.94115 0.001,2.56413 -0.0579,2.8817 -0.59361,3.16833 -0.32739,0.17522 -2.60444,0.39035 -5.06016,0.47809 -3.85514,0.13774 -4.55503,0.0934 -5.12491,-0.32488 z m 52.7402,21.61358 c 2.91369,-1.15977 4.62785,-3.57662 5.24806,-7.39937 0.40059,-2.46914 0.40279,-20.68775 0.003,-23.15303 -0.44006,-2.71219 -1.32871,-4.55662 -2.83362,-5.8813 -2.36526,-2.08198 -3.11362,-2.20484 -13.42954,-2.20484 h -9.09361 l -1.76006,0.82327 c -2.28095,1.06693 -3.13341,1.91244 -4.15305,4.11916 l -0.83376,1.80444 -0.0961,11.88036 c -0.10069,12.4481 0.005,13.90422 1.19063,16.2805 0.7816,1.56751 1.60041,2.42655 3.01227,3.16025 2.37123,1.23227 3.65644,1.36358 12.61372,1.28866 7.99228,-0.0669 8.60524,-0.11032 10.13226,-0.7181 z m -15.46265,-7.23855 c -0.51165,-0.22255 -1.07267,-0.67072 -1.24671,-0.99592 -0.20913,-0.39075 -0.31644,-4.08427 -0.31644,-10.89087 v -10.29959 l 0.72002,-0.72002 c 0.70443,-0.70443 0.82162,-0.72002 5.41048,-0.72002 4.53465,0 4.71778,0.0235 5.51349,0.70762 l 0.82305,0.70763 0.0769,10.0727 c 0.0847,11.10759 0.0768,11.16405 -1.69425,12.0523 -1.31792,0.66099 -7.82615,0.72139 -9.28644,0.0861 z m -215.486288,4.16775 1.172102,-3.30011 6.898618,-0.0786 6.89862,-0.0786 1.239266,3.37867 1.239267,3.37866 h 5.387579 5.38758 l -0.312067,-0.80668 c -0.171634,-0.44369 -1.412709,-3.71078 -2.757939,-7.26023 -1.34523,-3.54944 -4.048556,-10.67766 -6.007394,-15.84048 -1.958835,-5.16282 -3.981594,-10.50898 -4.495017,-11.88035 l -0.933499,-2.49342 -5.575257,-0.0794 -5.575258,-0.0794 -3.573822,9.46637 c -4.021273,10.65157 -10.481673,27.67931 -10.797963,28.46027 -0.193542,0.47788 0.166573,0.51335 5.212589,0.51335 h 5.420493 z m 3.890154,-10.97478 c 0,-0.62824 4.255043,-12.41377 4.363336,-12.08548 0.0725,0.21976 1.034459,3.02458 2.137698,6.23292 1.103239,3.20834 2.00589,5.88141 2.00589,5.94018 0,0.0588 -1.91406,0.10687 -4.253463,0.10687 -2.339404,0 -4.253461,-0.0875 -4.253461,-0.19445 z m 37.910767,3.86662 0.0771,-10.40825 3.666777,6.59552 3.66678,6.59551 3.91891,-0.074 3.91893,-0.074 3.70797,-6.5775 3.70798,-6.57752 0.0771,10.4643 0.0771,10.46429 h 4.98312 4.9831 v -19.22047 -19.22053 l -5.29444,0.08 -5.29445,0.08 -5.33921,9.89914 c -2.93656,5.44454 -5.428,9.89967 -5.53653,9.9003 -0.10854,6.4e-4 -1.2416,-1.9459 -2.51792,-4.32564 -1.27632,-2.37974 -3.69503,-6.86786 -5.374916,-9.97363 l -3.05434,-5.64684 h -5.2081 -5.208069 v 19.21391 19.21391 h 4.983109 4.98311 z m 70.625837,6.5948 v -3.81344 H 156.74687 146.4799 v -3.96012 -3.96012 h 8.07542 8.07542 l -0.0819,-3.88679 -0.0818,-3.88678 -7.99356,-0.078 -7.99359,-0.078 v -3.66207 -3.66206 h 10.26699 10.26696 v -3.81345 -3.81345 h -15.25379 -15.25378 v 19.21391 19.21391 h 15.25378 15.25379 z m 23.83143,-11.51368 0.0759,-15.32712 5.79352,-0.0795 5.79351,-0.0795 v -3.80724 -3.80725 h -16.57382 -16.57383 v 3.80725 3.80724 l 5.79351,0.0795 5.79351,0.0795 0.0759,15.32712 0.0759,15.32713 h 4.83491 4.83491 z m 106.11914,-36.59441 v -0.88003 H 150.29334 3.6222645 v 0.88003 0.88002 H 150.29334 296.96442 Z"
       id="path1" /></g></svg>
